PathFileType	4	(X/Y/Z)	C:/Users/opensim2020/Desktop/walking_exp_matlab/subject06_walking15_straight_03.trc																																																																																																																																											
DataRate	CameraRate	NumFrames	NumMarkers	Units	OrigDataRate	OrigDataStartFrame	OrigNumFrames																																																																																																																																							
100	100	8	47	mm	100	2209	193																																																																																																																																							
Frame#	Time	LFHD			RFHD			LBHD			RBHD			C7			T10			CLAV			STRN			RBAK			LSHO			LUPA			LELB			LFRM			LWRA			LWRB			LFIN			RSHO			RUPA			RELB			RFRM			RWRA			RWRB			RFIN			LASI			RASI			LPSI			RPSI			LTHI			LKNE			LTIB			LANK			LHEE			LTOE			RTHI			RKNE			RTIB			RANK			RHEE			RTOE			*39			*40			*41			*42			*43			*44			*45			*46		
		X1	Y1	Z1	X2	Y2	Z2	X3	Y3	Z3	X4	Y4	Z4	X5	Y5	Z5	X6	Y6	Z6	X7	Y7	Z7	X8	Y8	Z8	X9	Y9	Z9	X10	Y10	Z10	X11	Y11	Z11	X12	Y12	Z12	X13	Y13	Z13	X14	Y14	Z14	X15	Y15	Z15	X16	Y16	Z16	X17	Y17	Z17	X18	Y18	Z18	X19	Y19	Z19	X20	Y20	Z20	X21	Y21	Z21	X22	Y22	Z22	X23	Y23	Z23	X24	Y24	Z24	X25	Y25	Z25	X26	Y26	Z26	X27	Y27	Z27	X28	Y28	Z28	X29	Y29	Z29	X30	Y30	Z30	X31	Y31	Z31	X32	Y32	Z32	X33	Y33	Z33	X34	Y34	Z34	X35	Y35	Z35	X36	Y36	Z36	X37	Y37	Z37	X38	Y38	Z38	X39	Y39	Z39	X40	Y40	Z40	X41	Y41	Z41	X42	Y42	Z42	X43	Y43	Z43	X44	Y44	Z44	X45	Y45	Z45	X46	Y46	Z46	X47	Y47	Z47
																																																																																																																																														
73	0.72	-387.75067	1650.20862	1353.12927	-388.80402	1642.44824	1484.91174	-520.79565	1594.87842	1353.00903	-520.48785	1592.52881	1482.65479	-523.091	1443.93164	1411.16296	-577.60925	1118.02856	1419.75806	-417.6022	1360.06262	1416.95056	-389.22211	1183.12256	1412.32556	-609.69885	1279.19238	1482.86108	-461.14374	1391.79858	1254.16516	-428.57596	1194.69702	1178.83154	-401.75494	1086.17529	1161.61536	-294.21548	983.02905	1145.79846	-176.31277	943.64014	1195.22644	-213.97144	895.50958	1159.91028	-127.58792	871.28174	1159.61938	-469.5701	1396.56653	1575.1377	-545.33246	1209.85901	1661.3125	-559.453	1088.5564	1676.6394	-572.57489	969.68616	1698.67334	-545.36206	818.81244	1677.81567	-599.79846	835.02393	1713.72986	-584.71045	751.8476	1719.49011	-411.22992	942.85223	1315.85828	-400.67447	965.13574	1535.83093	-565.42902	980.28601	1348.43103	-553.65063	990.87653	1515.58691	-531.02991	635.3504	1271.55737	-568.31952	475.02145	1294.63135	-740.39764	279.85538	1298.08313	-838.37091	137.05235	1338.11401	-880.04749	145.25635	1383.16504	-731.56732	39.50246	1343.3833	-391.81985	641.11737	1599.67603	-352.75916	524.53168	1568.09863	-352.21948	257.12726	1568.15479	-340.12085	72.14012	1519.98181	-375.62146	48.22615	1473.1416	-185.74866	41.90102	1521.70886	-488.84903	1689.56909	1410.5354	NaN	NaN	NaN	NaN	NaN	NaN	NaN	NaN	NaN	NaN	NaN	NaN	NaN	NaN	NaN	NaN	NaN	NaN	NaN	NaN	NaN
74	0.73	-377.8671	1652.61133	1354.84937	-378.56354	1644.42371	1486.54749	-510.55685	1597.5426	1354.46912	-510.27081	1594.66772	1484.16138	-513.10944	1446.03906	1412.51587	-566.91876	1120.45166	1421.42456	-407.16431	1362.52209	1417.93958	-378.34497	1185.72205	1413.25977	-598.64313	1281.56421	1484.31628	-451.33804	1394.23364	1255.58838	-418.93134	1197.12854	1180.83789	-394.673	1087.84814	1164.21008	-289.47385	981.99146	1147.99292	-172.45911	939.48578	1196.73389	-211.35648	892.55505	1161.60229	-125.45757	865.88446	1161.20105	-458.57788	1399.13501	1576.2428	-533.13666	1212.07666	1662.75146	-546.37555	1090.70508	1678.19592	-558.50427	971.83875	1700.22095	-533.71002	819.55151	1675.94812	-584.36133	836.99304	1715.44312	-568.6731	753.98846	1721.32605	-400.93314	945.3504	1317.29541	-390.03976	966.93848	1536.80933	-554.97473	982.58051	1350.72888	-542.13531	993.28815	1517.72937	-517.19684	636.09778	1273.1593	-550.82495	475.08554	1295.28601	-727.565	284.76279	1299.54163	-829.88379	145.19884	1339.10657	-870.2868	155.26059	1384.85315	-729.79041	40.3119	1343.94763	-384.61346	641.20532	1600.23499	-346.70914	524.56097	1568.41028	-349.94559	257.26062	1567.72974	-339.37021	72.32089	1519.67529	-375.48172	48.37746	1472.94373	-185.31216	41.37901	1520.95056	-478.50739	1691.93982	1412.42334	NaN	NaN	NaN	NaN	NaN	NaN	NaN	NaN	NaN	NaN	NaN	NaN	NaN	NaN	NaN	NaN	NaN	NaN	NaN	NaN	NaN
75	0.74	-367.33105	1655.0387	1356.44885	-368.33243	1646.22803	1488.06506	-500.46622	1600.10217	1355.91479	-500.12064	1596.73987	1485.58276	-502.64899	1447.90894	1413.71033	-556.48645	1122.6488	1423.26709	-396.91748	1364.80957	1418.87183	-367.59198	1188.16809	1414.20093	-587.61102	1283.82556	1486.18298	-441.77802	1396.50903	1256.93481	-409.94196	1199.31677	1182.82678	-387.91132	1089.25195	1166.70581	-285.09818	980.7348	1150.1366	-168.61397	935.43481	1198.06909	-209.20757	889.38135	1163.1449	-124.1056	860.11487	1162.85999	-447.49789	1401.6189	1577.26843	-520.83917	1214.30151	1664.33728	-533.32611	1092.82117	1679.84253	-544.24902	973.85925	1701.82007	-518.20245	821.76416	1677.18469	-568.72351	838.79382	1716.90247	-552.15582	755.85852	1722.70715	-390.84586	947.6936	1318.52026	-379.04599	968.51849	1537.74451	-544.66443	984.6994	1353.05847	-530.6059	995.48193	1519.87683	-502.98419	636.76971	1274.57544	-532.72241	475.09747	1295.90417	-713.43646	289.55899	1301.18591	-820.22015	153.36128	1340.19141	-859.02234	165.33255	1386.7334	-727.12469	41.5397	1344.36975	-377.61398	641.25745	1600.85376	-341.11288	524.43878	1568.75476	-347.79077	257.34363	1566.93213	-338.68539	72.50444	1519.14551	-375.28726	48.57022	1472.71423	-184.67892	41.17911	1520.05017	-468.24683	1694.23706	1414.17932	NaN	NaN	NaN	NaN	NaN	NaN	NaN	NaN	NaN	NaN	NaN	NaN	NaN	NaN	NaN	NaN	NaN	NaN	NaN	NaN	NaN
76	0.75	-357.27823	1657.05664	1357.896	-358.19043	1647.85876	1489.50586	-490.56705	1602.42419	1357.31458	-490.03958	1598.64539	1486.91931	-492.85132	1449.59302	1415.14392	-545.91199	1124.69055	1425.19556	-386.6322	1366.97351	1419.84082	-356.86853	1190.44287	1415.30835	-576.73669	1285.85132	1488.41455	-432.43759	1398.54639	1258.17139	-401.66736	1201.05774	1184.56543	-381.62613	1090.35266	1169.16406	-281.30942	979.36407	1152.0072	-165.44154	930.9881	1199.87683	-207.04117	886.05774	1164.66785	-123.20955	854.10388	1164.55896	-436.4151	1403.97791	1578.3374	-508.48798	1216.44202	1666.05212	-520.25055	1094.75024	1681.66846	-529.72864	975.73865	1703.45825	-502.11618	823.99567	1678.49365	-552.7536	840.43488	1718.40247	-535.13428	757.78278	1724.19287	-380.92044	950.16595	1320.26147	-368.06567	969.72156	1538.66406	-534.60284	986.5993	1355.27917	-519.29584	997.46014	1521.92212	-488.34241	637.26654	1275.71191	-514.09393	474.92203	1296.5188	-698.37079	294.18961	1302.87683	-808.73126	161.54274	1341.08081	-846.49268	175.28288	1388.37415	-723.38373	43.56834	1344.38525	-370.77121	641.45923	1601.35486	-335.74908	524.26874	1569.27332	-346.3266	257.29172	1566.68848	-338.26752	72.65063	1518.67456	-375.12512	48.72969	1472.40125	-184.52068	41.14007	1519.71143	-458.00089	1696.27856	1415.849	NaN	NaN	NaN	NaN	NaN	NaN	NaN	NaN	NaN	NaN	NaN	NaN	NaN	NaN	NaN	NaN	NaN	NaN	NaN	NaN	NaN
77	0.76	-347.27621	1658.80688	1359.13062	-348.11969	1649.35327	1490.72449	-480.59659	1604.37415	1358.60571	-480.03552	1600.3429	1488.23767	-482.91046	1451.12634	1416.50586	-535.35663	1126.23877	1427.16638	-376.38303	1368.87476	1420.84192	-346.25583	1192.42981	1416.42273	-565.90424	1287.62061	1490.87122	-423.43149	1400.2782	1259.27991	-394.15164	1202.34167	1186.06323	-375.5015	1091.05127	1171.5376	-277.8588	977.45544	1154.00232	-162.81293	926.0722	1201.44116	-206.15346	882.46222	1166.20862	-123.16624	847.6969	1166.33203	-425.35635	1406.10071	1579.39929	-495.98874	1218.42517	1667.86829	-507.23059	1096.80725	1683.23926	-515.19098	977.49261	1705.17358	-485.54315	826.22522	1679.97144	-536.41797	841.82391	1719.9231	-517.7066	759.46204	1725.46057	-371.13156	952.04553	1321.02271	-357.25912	970.64807	1539.54211	-524.68567	988.18555	1357.25293	-508.39734	999.17102	1523.78638	-473.71552	637.58844	1276.599	-495.1084	474.62836	1297.18152	-682.05042	298.60651	1304.40247	-796.47754	169.61516	1341.7926	-833.04846	185.1483	1389.65479	-719.12781	45.67633	1345.02844	-363.90741	641.90582	1601.98633	-330.62814	523.88428	1569.54382	-344.70901	257.24768	1566.58948	-338.07275	72.73544	1518.38147	-375.06183	48.72588	1472.14539	-184.60141	40.88024	1519.58423	-447.9147	1698.0896	1417.32825	NaN	NaN	NaN	NaN	NaN	NaN	NaN	NaN	NaN	NaN	NaN	NaN	NaN	NaN	NaN	NaN	NaN	NaN	NaN	NaN	NaN
78	0.77	-337.49921	1660.27332	1360.22217	-338.09079	1650.71777	1491.8103	-470.83664	1605.93262	1359.87329	-470.05856	1601.83386	1489.50574	-472.68076	1452.38074	1417.80139	-525.09033	1127.50403	1429.26831	-366.33228	1370.43054	1421.70288	-335.82806	1194.07605	1417.4668	-555.16425	1288.95569	1493.45398	-414.36554	1401.66016	1260.26575	-387.35559	1203.11536	1187.5918	-369.47458	1091.56653	1173.81299	-274.56061	975.60211	1156.20215	-160.67897	920.90149	1202.97974	-205.36768	878.70129	1167.69397	-123.34341	841.12238	1168.04761	-414.28998	1407.93774	1580.44739	-483.42877	1220.16821	1669.79993	-494.25171	1098.46826	1685.02136	-500.41589	978.96375	1706.94031	-468.62494	828.3313	1681.35657	-519.6286	842.96863	1721.51794	-499.83713	760.76624	1726.89478	-361.26157	953.60504	1322.06348	-346.71613	971.58386	1540.56531	-514.88049	989.41498	1358.87952	-497.86844	1000.67249	1525.30261	-459.24274	637.70197	1277.90063	-475.77243	474.23444	1297.79785	-665.1217	302.90616	1305.70459	-783.47284	177.68097	1342.49658	-818.81348	195.14473	1390.52783	-712.88916	49.42921	1345.27246	-356.63174	642.57867	1602.96045	-325.21106	523.82098	1570.38135	-342.84906	257.23273	1566.95361	-337.854	72.68906	1518.39661	-375.00677	48.67333	1472.18945	-184.30573	40.90086	1519.29492	-438.0004	1699.61292	1418.62476	NaN	NaN	NaN	NaN	NaN	NaN	NaN	NaN	NaN	NaN	NaN	NaN	NaN	NaN	NaN	NaN	NaN	NaN	NaN	NaN	NaN
79	0.78	-327.83093	1661.59436	1361.15479	-328.12772	1652.05396	1492.75134	-461.15408	1607.1875	1361.12073	-460.09326	1603.10657	1490.73071	-462.99588	1453.49207	1419.2832	-514.79291	1128.51379	1431.21155	-356.24567	1371.76379	1422.68677	-325.56256	1195.42712	1418.43567	-544.56311	1290.02246	1496.08704	-405.61365	1402.74084	1261.10168	-380.99823	1203.44128	1189.04773	-363.6795	1091.79736	1176.04309	-271.97382	973.24933	1158.02356	-158.94447	915.48877	1204.41174	-205.10358	874.6908	1169.0863	-124.08783	834.45508	1169.54138	-403.24548	1409.44421	1581.49915	-470.8009	1221.59143	1671.75989	-480.92572	1099.7876	1687.02527	-485.46652	980.2149	1708.82581	-451.40839	830.13794	1682.77063	-502.44302	843.86603	1723.19263	-480.8605	762.22748	1728.30823	-351.1673	955.05237	1323.5448	-336.40045	972.4469	1541.53711	-505.21991	990.38159	1360.16089	-487.77423	1001.93835	1526.56934	-444.69952	637.60028	1278.64453	-456.37366	473.82318	1298.4314	-647.32642	306.87088	1306.82861	-769.23987	185.70369	1343.26807	-803.66187	204.92212	1391.32544	-705.01654	54.0457	1345.67834	-349.41177	643.31519	1603.74524	-319.82785	524.1167	1571.73804	-340.4787	257.25601	1567.77209	-337.52811	72.55189	1518.58032	-375.05667	48.67484	1472.36938	-184.27293	40.86967	1519.20056	-428.24625	1700.89294	1419.7677	NaN	NaN	NaN	NaN	NaN	NaN	NaN	NaN	NaN	NaN	NaN	NaN	NaN	NaN	NaN	NaN	NaN	NaN	NaN	NaN	NaN
80	0.79	-318.24908	1662.76208	1361.97241	-318.24048	1653.30383	1493.57202	-451.52319	1608.21484	1362.26794	-450.14069	1604.21191	1491.85681	-454.62976	1455.00732	1421.35278	-504.58426	1129.36145	1433.03796	-346.23831	1372.93115	1423.58618	-315.48209	1196.52563	1419.36487	-534.28918	1290.85071	1498.73779	-396.91107	1403.64111	1261.89294	-375.61243	1203.19006	1190.83826	-358.07837	1091.64624	1178.14185	-268.89087	970.68719	1159.83667	-157.65543	909.78632	1205.78442	-205.18584	870.37476	1170.66626	-125.47588	827.59753	1171.03235	-392.2074	1410.64307	1582.6322	-458.28427	1222.67664	1673.75244	-467.79471	1100.81555	1689.07324	-470.48828	981.23669	1710.75208	-433.78314	831.89966	1684.22974	-484.86063	844.50238	1724.927	-461.87	763.23596	1729.64868	-341.6055	955.87103	1324.33997	-326.39304	973.2854	1542.72559	-495.57303	991.09326	1361.13635	-478.17917	1002.99774	1527.52441	-430.27454	637.3775	1279.38586	-437.09415	473.51132	1298.97705	-628.79907	310.24637	1307.88025	-754.19385	193.32097	1344.31372	-788.00336	213.52724	1392.4718	-694.13409	59.40481	1345.49487	-342.14728	644.00256	1604.63623	-315.05432	523.91479	1572.61414	-337.7738	257.28937	1568.78845	-337.47461	72.43045	1518.68616	-375.08902	48.59328	1472.64954	-184.33604	40.82068	1519.22571	-418.6008	1701.98145	1420.73901	NaN	NaN	NaN	NaN	NaN	NaN	NaN	NaN	NaN	NaN	NaN	NaN	NaN	NaN	NaN	NaN	NaN	NaN	NaN	NaN	NaN
